<?xml version="1.0" encoding="utf-8"?>
<!-- Generator: Adobe Illustrator 16.0.0, SVG Export Plug-In . SVG Version: 6.00 Build 0)  -->
<!DOCTYPE svg PUBLIC "-//W3C//DTD SVG 1.1//EN" "http://www.w3.org/Graphics/SVG/1.1/DTD/svg11.dtd">
<svg version="1.1" id="Camada_1" xmlns="http://www.w3.org/2000/svg" xmlns:xlink="http://www.w3.org/1999/xlink" x="0px" y="0px"
	 width="50px" height="50px" viewBox="0 0 50 50" enable-background="new 0 0 50 50" xml:space="preserve">
<g>
	<path fill="#1A66AA" d="M43,38c0,5.5-4.5,10-10,10H14C8.5,48,4,43.5,4,38V13C4,7.5,8.5,3,14,3h19c5.5,0,10,4.5,10,10V38z"/>
</g>
<g>
	<g>
		<path fill="#FFFFFF" d="M29.373,37.242c-1.1,0-2.402-0.805-2.895-1.789l-0.407-0.813c-0.492-0.984-1.297-2.594-1.789-3.578
			c0,0-0.582-1.163-1.265-2.566l0,0c-0.04,0-0.42,0.83-0.845,1.845c0,0-0.343,0.819-1.099,2.511l-1.181,2.574
			c-0.459,0.999-1.734,1.817-2.834,1.817h-2.263c-1.1,0-1.553-0.781-1.007-1.736l5.034-8.802c0.546-0.955,0.55-2.52,0.009-3.478
			l-4.8-8.503c-0.541-0.958-0.083-1.742,1.017-1.742h2.299c1.1,0,2.389,0.812,2.865,1.803l0.394,0.821
			c0.476,0.992,1.25,2.617,1.72,3.611c0,0,0.405,0.855,0.98,2.223l0,0c0.04,0,0.405-0.836,0.811-1.859c0,0,0.306-0.769,0.917-2.172
			l1.21-2.613c0.463-0.998,1.741-1.814,2.841-1.814h2.264c1.1,0,1.55,0.779,1,1.732l-4.84,8.378
			c-0.55,0.953-0.549,2.511,0.003,3.462l5.193,8.958c0.552,0.952,0.103,1.73-0.997,1.73H29.373z"/>
	</g>
</g>
</svg>
