<?xml version="1.0" encoding="utf-8"?>
<!-- Generator: Adobe Illustrator 16.0.0, SVG Export Plug-In . SVG Version: 6.00 Build 0)  -->
<!DOCTYPE svg PUBLIC "-//W3C//DTD SVG 1.1//EN" "http://www.w3.org/Graphics/SVG/1.1/DTD/svg11.dtd">
<svg version="1.1" id="Camada_1" xmlns="http://www.w3.org/2000/svg" xmlns:xlink="http://www.w3.org/1999/xlink" x="0px" y="0px"
	 width="50px" height="50px" viewBox="0 0 50 50" enable-background="new 0 0 50 50" xml:space="preserve">
<path fill="#DEECF1" d="M25,50C11.269,50,0,38.731,0,25S11.269,0,25,0s25,11.269,25,25S38.731,50,25,50z"/>
<path fill="#C6E2E7" d="M50,25C50,11.269,38.731,0,25,0v50C38.731,50,50,38.731,50,25z"/>
<path fill="#384949" d="M39.648,16.211l-7.324-5.859v2.93h-2.493c-3.114,0-6.023,1.671-7.592,4.36l-6.864,11.765
	c-0.523,0.896-1.492,1.453-2.531,1.453h-2.493v5.859h2.493c3.114,0,6.023-1.671,7.592-4.36l6.864-11.764
	c0.523-0.897,1.491-1.454,2.53-1.454h2.493v2.93L39.648,16.211z"/>
<path fill="#293939" d="M32.324,13.281h-2.493c-1.754,0-3.411,0.575-4.831,1.518v9.738l2.301-3.943
	c0.523-0.897,1.491-1.454,2.53-1.454h2.493v2.93l7.324-5.859l-7.324-5.859V13.281z"/>
</svg>
