<?xml version="1.0" encoding="iso-8859-1"?>
<!-- Generator: Adobe Illustrator 19.0.0, SVG Export Plug-In . SVG Version: 6.00 Build 0)  -->
<svg xmlns="http://www.w3.org/2000/svg" xmlns:xlink="http://www.w3.org/1999/xlink" version="1.1" id="Layer_1" x="0px" y="0px" viewBox="0 0 411.19 411.19" style="enable-background:new 0 0 411.19 411.19;" xml:space="preserve" width="512" height="512">
<g>
	<path style="fill:#0071CE;" d="M254.504,16.812C254.504,7.565,246.939,0,237.693,0h-64.195c-9.247,0-16.813,7.565-16.813,16.812   v32.345c0,9.247,7.565,16.812,16.813,16.812h64.195c9.246,0,16.811-7.565,16.811-16.812V16.812z"/>
	<path style="fill:#0071CE;" d="M108.377,38.989c-4.996-4.859-13.058-4.747-17.916,0.247L56.725,73.914   c-4.856,4.995-4.746,13.057,0.248,17.916l17.474,16.998c4.994,4.859,13.057,4.748,17.916-0.247l33.734-34.677   c4.859-4.995,4.749-13.058-0.248-17.916L108.377,38.989z"/>
	<path style="fill:#8BDC65;" d="M302.813,38.989c4.996-4.859,13.058-4.747,17.916,0.247l33.736,34.678   c4.857,4.995,4.746,13.057-0.248,17.916l-17.474,16.998c-4.994,4.859-13.057,4.748-17.916-0.247l-33.734-34.677   c-4.859-4.995-4.749-13.058,0.248-17.916L302.813,38.989z"/>
	<circle style="fill:#454F58;" cx="205.595" cy="188.632" r="160.509"/>
	<circle style="fill:#00B3E3;" cx="205.595" cy="188.632" r="122.663"/>
	<path style="fill:#0071CE;" d="M98.154,247.845c20.891,37.827,61.171,63.45,107.441,63.45s86.551-25.623,107.441-63.45H98.154z"/>
	<g>
		<path style="fill:#FFFFFF;" d="M155.1,152.95v-35.346l5.049-13.465c4.487,1.123,7.293,3.929,8.416,8.416v47.128l-3.366,3.366    L155.1,152.95z M165.199,166.415l3.366,3.367v47.128c-1.123,4.49-3.929,7.296-8.416,8.416L155.1,211.86v-35.346L165.199,166.415z"/>
		<path style="fill:#FFFFFF;" d="M198.862,120.97v31.98l-10.099,10.099l-3.366-3.366V115.92L198.862,120.97z M185.397,213.543    v-43.762l3.366-3.367l10.099,10.099v31.98L185.397,213.543z M244.307,225.326h-50.494c-4.49-1.12-7.296-3.926-8.416-8.416    l13.465-5.049h40.395L244.307,225.326z M239.257,117.604h-40.227l-13.466-5.049c1.12-4.487,3.927-7.293,8.416-8.416h50.326    L239.257,117.604z M242.624,152.95v-35.346l5.049-13.465c4.487,1.123,7.293,3.929,8.416,8.416v47.128l-3.366,3.366L242.624,152.95    z M252.723,166.415l3.366,3.367v47.128c-1.123,4.49-3.929,7.296-8.416,8.416l-5.049-13.465v-35.346L252.723,166.415z"/>
	</g>
	<path style="fill:#454F58;" d="M205.595,411.19c-21.037,0-38.151-17.114-38.151-38.151c0-21.037,17.114-38.151,38.151-38.151   s38.151,17.114,38.151,38.151C243.747,394.076,226.632,411.19,205.595,411.19z M205.595,349.889   c-12.766,0-23.151,10.385-23.151,23.151c0,12.766,10.386,23.151,23.151,23.151c12.766,0,23.151-10.385,23.151-23.151   C228.747,360.274,218.361,349.889,205.595,349.889z"/>
</g>















</svg>
